<?xml version="1.0" standalone="no"?>
<!DOCTYPE svg PUBLIC "-//W3C//DTD SVG 20010904//EN"
 "http://www.w3.org/TR/2001/REC-SVG-20010904/DTD/svg10.dtd">
<svg version="1.0" xmlns="http://www.w3.org/2000/svg"
 width="260.000000pt" height="260.000000pt" viewBox="0 0 260.000000 260.000000"
 preserveAspectRatio="xMidYMid meet">
<metadata>
Created by potrace 1.11, written by Peter Selinger 2001-2013
</metadata>
<g transform="translate(0.000000,260.000000) scale(0.100000,-0.100000)"
fill="#000000" stroke="none">
<path d="M0 1300 l0 -1300 1300 0 1300 0 0 1300 0 1300 -1300 0 -1300 0 0
-1300z m806 425 c267 -51 397 -218 398 -510 1 -189 -45 -307 -162 -417 -132
-123 -226 -148 -564 -148 l-238 0 0 545 0 545 244 0 c175 0 266 -4 322 -15z
m996 -220 c82 -126 189 -293 239 -369 l89 -139 0 372 0 371 115 0 115 0 0
-545 0 -545 -124 0 -124 0 -239 368 c-132 202 -244 375 -249 384 -5 10 -8
-138 -6 -368 l3 -384 -120 0 -121 0 0 545 0 546 136 -3 136 -3 150 -230z"/>
<path d="M490 1195 l0 -345 88 0 c225 0 346 103 368 313 7 70 -8 163 -36 217
-22 41 -83 102 -125 123 -47 23 -128 37 -215 37 l-80 0 0 -345z"/>
</g>
</svg>
